<?xml version="1.0" standalone="no"?>
<svg xmlns:xlink="http://www.w3.org/1999/xlink" id="wave" style="transform:rotate(180deg); transition: 0.3s" viewBox="0 0 1440 490" version="1.1" xmlns="http://www.w3.org/2000/svg"><defs><linearGradient id="sw-gradient-0" x1="0" x2="0" y1="1" y2="0"><stop stop-color="rgba(106, 189, 101, 1)" offset="0%"/><stop stop-color="rgba(216.363, 255, 214.036, 1)" offset="100%"/></linearGradient></defs><path style="transform:translate(0, 0px); opacity:1" fill="url(#sw-gradient-0)" d="M0,147L240,138.8C480,131,960,114,1440,155.2C1920,196,2400,294,2880,302.2C3360,310,3840,229,4320,179.7C4800,131,5280,114,5760,106.2C6240,98,6720,98,7200,114.3C7680,131,8160,163,8640,155.2C9120,147,9600,98,10080,81.7C10560,65,11040,82,11520,98C12000,114,12480,131,12960,130.7C13440,131,13920,114,14400,130.7C14880,147,15360,196,15840,245C16320,294,16800,343,17280,359.3C17760,376,18240,359,18720,359.3C19200,359,19680,376,20160,326.7C20640,278,21120,163,21600,106.2C22080,49,22560,49,23040,114.3C23520,180,24000,310,24480,351.2C24960,392,25440,343,25920,277.7C26400,212,26880,131,27360,122.5C27840,114,28320,180,28800,171.5C29280,163,29760,82,30240,57.2C30720,33,31200,65,31680,98C32160,131,32640,163,33120,147C33600,131,34080,65,34320,32.7L34560,0L34560,490L34320,490C34080,490,33600,490,33120,490C32640,490,32160,490,31680,490C31200,490,30720,490,30240,490C29760,490,29280,490,28800,490C28320,490,27840,490,27360,490C26880,490,26400,490,25920,490C25440,490,24960,490,24480,490C24000,490,23520,490,23040,490C22560,490,22080,490,21600,490C21120,490,20640,490,20160,490C19680,490,19200,490,18720,490C18240,490,17760,490,17280,490C16800,490,16320,490,15840,490C15360,490,14880,490,14400,490C13920,490,13440,490,12960,490C12480,490,12000,490,11520,490C11040,490,10560,490,10080,490C9600,490,9120,490,8640,490C8160,490,7680,490,7200,490C6720,490,6240,490,5760,490C5280,490,4800,490,4320,490C3840,490,3360,490,2880,490C2400,490,1920,490,1440,490C960,490,480,490,240,490L0,490Z"/></svg>